<svg width="26" height="25" viewBox="0 0 26 25" fill="none" xmlns="http://www.w3.org/2000/svg">
<g clip-path="url(#clip0_874_9550)">
<path d="M21.3332 9.63V14.5779C21.3401 14.6936 21.3205 14.8094 21.2759 14.9165C21.2064 15.084 21.0773 15.2198 20.9134 15.2977L15.2239 17.9852C14.5285 18.3137 13.769 18.4841 12.9999 18.4841C12.2308 18.4841 11.4713 18.3137 10.7759 17.9852L5.08636 15.2977C4.9521 15.2341 4.84029 15.1312 4.76571 15.0027C4.69113 14.8742 4.65729 14.7261 4.66866 14.5779L4.66657 9.63" stroke="black" stroke-width="1.5625" stroke-linecap="round" stroke-linejoin="round"/>
<path d="M5.11552 9.32936L10.9843 6.9002C12.275 6.3666 13.7247 6.3666 15.0155 6.9002L20.8843 9.32936C21.0143 9.38249 21.1259 9.47244 21.2055 9.58816C21.2851 9.70388 21.3292 9.84032 21.3323 9.98074C21.3354 10.1211 21.2974 10.2594 21.223 10.3785C21.1486 10.4976 21.041 10.5924 20.9134 10.6512L15.2238 13.3002C14.5272 13.6241 13.7682 13.7919 12.9999 13.7919C12.2316 13.7919 11.4726 13.6241 10.7759 13.3002L5.08635 10.6512C4.95811 10.5929 4.84981 10.4982 4.77486 10.379C4.69991 10.2597 4.66162 10.121 4.66473 9.98016C4.66783 9.83932 4.7122 9.70248 4.79233 9.58661C4.87246 9.47074 4.98483 9.38198 5.11552 9.32936Z" stroke="black" stroke-width="1.5625" stroke-linecap="round" stroke-linejoin="round"/>
</g>
<defs>
<clipPath id="clip0_874_9550">
<rect width="25" height="25" fill="white" transform="translate(0.5)"/>
</clipPath>
</defs>
</svg>
