<svg width="9" height="14" viewBox="0 0 9 14" fill="none" xmlns="http://www.w3.org/2000/svg">
<path d="M8.76738 6.5345L0.243908 0.0315415C0.221635 0.0144137 0.194869 0.00376947 0.166683 0.000831212C0.138497 -0.00210704 0.110034 0.00277984 0.084563 0.0149307C0.0590921 0.0270816 0.0376465 0.0460037 0.0226885 0.0695238C0.00773064 0.0930439 -0.000132753 0.120208 1.69567e-06 0.147897V1.57556C1.69567e-06 1.66605 0.0434889 1.75286 0.115337 1.80827L6.92202 6.99992L0.115337 12.1916C0.0415982 12.247 1.69567e-06 12.3338 1.69567e-06 12.4243V13.8519C1.69567e-06 13.9757 0.145589 14.044 0.243908 13.9683L8.76738 7.46534C8.83983 7.41014 8.89843 7.33953 8.93874 7.25889C8.97905 7.17824 9 7.08967 9 6.99992C9 6.91018 8.97905 6.82161 8.93874 6.74096C8.89843 6.66031 8.83983 6.5897 8.76738 6.5345Z" fill="black" fill-opacity="0.45"/>
</svg>
