<svg width="9" height="14" viewBox="0 0 9 14" fill="none" xmlns="http://www.w3.org/2000/svg">
<path d="M0.232616 7.4655L8.75609 13.9685C8.77836 13.9856 8.80513 13.9962 8.83332 13.9992C8.8615 14.0021 8.88997 13.9972 8.91544 13.9851C8.94091 13.9729 8.96235 13.954 8.97731 13.9305C8.99227 13.907 9.00013 13.8798 9 13.8521V12.4244C9 12.3339 8.95651 12.2471 8.88466 12.1917L2.07798 7.00008L8.88466 1.80842C8.9584 1.75301 9 1.66621 9 1.57571V0.148051C9 0.0243082 8.85441 -0.0440273 8.75609 0.0316963L0.232616 6.53466C0.160172 6.58986 0.101568 6.66047 0.0612602 6.74111C0.0209513 6.82176 0 6.91033 0 7.00008C0 7.08982 0.0209513 7.17839 0.0612602 7.25904C0.101568 7.33969 0.160172 7.4103 0.232616 7.4655Z" fill="black" fill-opacity="0.45"/>
</svg>
