<svg width="20" height="20" viewBox="0 0 20 20" fill="none" xmlns="http://www.w3.org/2000/svg">
<g clip-path="url(#clip0_323_21052)">
<path d="M16.3498 7.81335V11.5832C16.355 11.6714 16.3401 11.7596 16.3062 11.8411C16.2532 11.9688 16.1548 12.0723 16.03 12.1316L11.6951 14.1792C11.1653 14.4295 10.5866 14.5594 10.0006 14.5594C9.41467 14.5594 8.83599 14.4295 8.30618 14.1792L3.97126 12.1316C3.86896 12.0831 3.78377 12.0047 3.72695 11.9068C3.67013 11.8089 3.64435 11.6961 3.65301 11.5832L3.65142 7.81335" stroke="black" stroke-width="1.19048" stroke-linecap="round" stroke-linejoin="round"/>
<path d="M3.99301 7.58429L8.46443 5.7335C9.44788 5.32695 10.5524 5.32695 11.5359 5.7335L16.0073 7.58429C16.1063 7.62477 16.1914 7.6933 16.2521 7.78147C16.3127 7.86964 16.3463 7.9736 16.3486 8.08058C16.351 8.18756 16.322 8.2929 16.2653 8.38366C16.2087 8.47441 16.1267 8.54663 16.0295 8.59144L11.6946 10.6097C11.1638 10.8565 10.5855 10.9843 10.0001 10.9843C9.41479 10.9843 8.8365 10.8565 8.3057 10.6097L3.97078 8.59144C3.87308 8.547 3.79056 8.47487 3.73346 8.38398C3.67636 8.2931 3.64718 8.18745 3.64955 8.08014C3.65191 7.97283 3.68572 7.86858 3.74677 7.78029C3.80782 7.69201 3.89344 7.62438 3.99301 7.58429Z" stroke="black" stroke-width="1.19048" stroke-linecap="round" stroke-linejoin="round"/>
</g>
<defs>
<clipPath id="clip0_323_21052">
<rect width="19.0476" height="19.0476" fill="white" transform="translate(0.476562 0.476196)"/>
</clipPath>
</defs>
</svg>
