<svg width="40" height="40" viewBox="0 0 40 40" fill="none" xmlns="http://www.w3.org/2000/svg">
<g clip-path="url(#clip0_942_10550)">
<path d="M11.6666 31.6664C13.5075 31.6664 14.9999 30.174 14.9999 28.3331C14.9999 26.4921 13.5075 24.9998 11.6666 24.9998C9.82564 24.9998 8.33325 26.4921 8.33325 28.3331C8.33325 30.174 9.82564 31.6664 11.6666 31.6664Z" stroke="#1890FF" stroke-width="2.66667" stroke-linecap="round" stroke-linejoin="round"/>
<path d="M28.3333 31.6664C30.1743 31.6664 31.6667 30.174 31.6667 28.3331C31.6667 26.4921 30.1743 24.9998 28.3333 24.9998C26.4924 24.9998 25 26.4921 25 28.3331C25 30.174 26.4924 31.6664 28.3333 31.6664Z" stroke="#1890FF" stroke-width="2.66667" stroke-linecap="round" stroke-linejoin="round"/>
<path d="M8.33333 28.333H5V9.99967C5 9.55765 5.17559 9.13372 5.48816 8.82116C5.80072 8.5086 6.22464 8.33301 6.66667 8.33301H21.6667V28.333M15 28.333H25M31.6667 28.333H35V18.333M35 18.333H21.6667M35 18.333L30 9.99967H21.6667" stroke="#1890FF" stroke-width="2.66667" stroke-linecap="round" stroke-linejoin="round"/>
</g>
<defs>
<clipPath id="clip0_942_10550">
<rect width="40" height="40" fill="white"/>
</clipPath>
</defs>
</svg>
