<svg width="40" height="40" viewBox="0 0 40 40" fill="none" xmlns="http://www.w3.org/2000/svg">
<g clip-path="url(#clip0_942_5243)">
<path d="M33.3328 15.408V23.3246C33.3437 23.5098 33.3123 23.695 33.2411 23.8663C33.1299 24.1344 32.9232 24.3517 32.6611 24.4763L23.5578 28.7763C22.4452 29.3019 21.23 29.5746 19.9995 29.5746C18.7689 29.5746 17.5537 29.3019 16.4411 28.7763L7.33779 24.4763C7.12296 24.3745 6.94407 24.2099 6.82475 24.0043C6.70542 23.7986 6.65127 23.5617 6.66946 23.3246L6.66613 15.408" stroke="#1890FF" stroke-width="2.5" stroke-linecap="round" stroke-linejoin="round"/>
<path d="M7.38487 14.9271L16.7749 11.0405C18.8401 10.1867 21.1596 10.1867 23.2249 11.0405L32.6149 14.9271C32.8229 15.0121 33.0016 15.156 33.1289 15.3412C33.2562 15.5263 33.3267 15.7447 33.3317 15.9693C33.3366 16.194 33.2758 16.4152 33.1568 16.6058C33.0377 16.7964 32.8656 16.948 32.6615 17.0421L23.5582 21.2805C22.4435 21.7987 21.2291 22.0672 19.9999 22.0672C18.7706 22.0672 17.5562 21.7987 16.4415 21.2805L7.33821 17.0421C7.13303 16.9488 6.95974 16.7973 6.83983 16.6065C6.71991 16.4156 6.65864 16.1938 6.66361 15.9684C6.66858 15.7431 6.73957 15.5241 6.86778 15.3387C6.99599 15.1533 7.17578 15.0113 7.38487 14.9271Z" stroke="#1890FF" stroke-width="2.5" stroke-linecap="round" stroke-linejoin="round"/>
</g>
<defs>
<clipPath id="clip0_942_5243">
<rect width="40" height="40" fill="white"/>
</clipPath>
</defs>
</svg>
