<svg width="40" height="40" viewBox="0 0 40 40" fill="none" xmlns="http://www.w3.org/2000/svg">
<g clip-path="url(#clip0_942_8628)">
<path d="M3.3335 33.3333C3.71211 33.8608 4.21345 34.2882 4.7942 34.5786C5.37496 34.8689 6.01767 35.0136 6.66683 35C7.31599 35.0136 7.9587 34.8689 8.53946 34.5786C9.12021 34.2882 9.62155 33.8608 10.0002 33.3333C10.3788 32.8058 10.8801 32.3784 11.4609 32.0881C12.0416 31.7977 12.6843 31.6531 13.3335 31.6666C13.9827 31.6531 14.6254 31.7977 15.2061 32.0881C15.7869 32.3784 16.2882 32.8058 16.6668 33.3333C17.0454 33.8608 17.5468 34.2882 18.1275 34.5786C18.7083 34.8689 19.351 35.0136 20.0002 35C20.6493 35.0136 21.292 34.8689 21.8728 34.5786C22.4535 34.2882 22.9549 33.8608 23.3335 33.3333C23.7121 32.8058 24.2134 32.3784 24.7942 32.0881C25.375 31.7977 26.0177 31.6531 26.6668 31.6666C27.316 31.6531 27.9587 31.7977 28.5395 32.0881C29.1202 32.3784 29.6215 32.8058 30.0002 33.3333C30.3788 33.8608 30.8801 34.2882 31.4609 34.5786C32.0416 34.8689 32.6843 35.0136 33.3335 35C33.9827 35.0136 34.6254 34.8689 35.2061 34.5786C35.7869 34.2882 36.2882 33.8608 36.6668 33.3333" stroke="#1890FF" stroke-width="2.5" stroke-linecap="round" stroke-linejoin="round"/>
<path d="M6.66667 30.0001L5 21.6667H35L31.6667 28.3334" stroke="#1890FF" stroke-width="2.5" stroke-linecap="round" stroke-linejoin="round"/>
<path d="M8.33325 21.6667V11.6667H21.6666L28.3333 21.6667" stroke="#1890FF" stroke-width="2.5" stroke-linecap="round" stroke-linejoin="round"/>
<path d="M11.6667 11.6667V5H10" stroke="#1890FF" stroke-width="2.5" stroke-linecap="round" stroke-linejoin="round"/>
</g>
<defs>
<clipPath id="clip0_942_8628">
<rect width="40" height="40" fill="white"/>
</clipPath>
</defs>
</svg>
