<svg width="24" height="24" viewBox="0 0 24 24" fill="none" xmlns="http://www.w3.org/2000/svg">
<g clip-path="url(#clip0_156_11524)">
<path d="M20 11C19.7554 9.2402 18.9391 7.60964 17.6766 6.35948C16.4142 5.10931 14.7758 4.3089 13.0137 4.08153C11.2516 3.85417 9.46362 4.21246 7.9252 5.10123C6.38678 5.98999 5.18325 7.35992 4.5 8.99998M4 4.99998V8.99998H8" stroke="#1890FF" stroke-width="1.5" stroke-linecap="round" stroke-linejoin="round"/>
<path d="M4 12.9999C4.24456 14.7597 5.06093 16.3903 6.32336 17.6404C7.58579 18.8906 9.22424 19.691 10.9863 19.9184C12.7484 20.1458 14.5364 19.7875 16.0748 18.8987C17.6132 18.0099 18.8168 16.64 19.5 14.9999M20 18.9999V14.9999H16" stroke="#1890FF" stroke-width="1.5" stroke-linecap="round" stroke-linejoin="round"/>
</g>
<defs>
<clipPath id="clip0_156_11524">
<rect width="24" height="24" fill="white"/>
</clipPath>
</defs>
</svg>
