<svg width="24" height="25" viewBox="0 0 24 25" fill="none" xmlns="http://www.w3.org/2000/svg">
<g clip-path="url(#clip0_254_3482)">
<path d="M6.00012 4.50003H16.0001L20.0001 8.50003V18.5C20.0001 19.0305 19.7894 19.5392 19.4143 19.9142C19.0393 20.2893 18.5306 20.5 18.0001 20.5H6.00012C5.46969 20.5 4.96098 20.2893 4.58591 19.9142C4.21084 19.5392 4.00012 19.0305 4.00012 18.5V6.50003C4.00012 5.9696 4.21084 5.46089 4.58591 5.08582C4.96098 4.71074 5.46969 4.50003 6.00012 4.50003Z" stroke="#1890FF" stroke-width="1.5" stroke-linecap="round" stroke-linejoin="round"/>
<path d="M12.0001 16.5C13.1047 16.5 14.0001 15.6045 14.0001 14.5C14.0001 13.3954 13.1047 12.5 12.0001 12.5C10.8956 12.5 10.0001 13.3954 10.0001 14.5C10.0001 15.6045 10.8956 16.5 12.0001 16.5Z" stroke="#1890FF" stroke-width="1.5" stroke-linecap="round" stroke-linejoin="round"/>
<path d="M14 4.50003V8.50003H8V4.50003" stroke="#1890FF" stroke-width="1.5" stroke-linecap="round" stroke-linejoin="round"/>
</g>
<defs>
<clipPath id="clip0_254_3482">
<rect width="24" height="24" fill="white" transform="translate(0 0.5)"/>
</clipPath>
</defs>
</svg>
