<svg width="18" height="18" viewBox="0 0 18 18" fill="none" xmlns="http://www.w3.org/2000/svg">
<g clip-path="url(#clip0_325_525)">
<path d="M4.49988 3.00006H11.9999L14.9999 6.00006V13.5001C14.9999 13.8979 14.8418 14.2794 14.5605 14.5607C14.2792 14.842 13.8977 15.0001 13.4999 15.0001H4.49988C4.10205 15.0001 3.72052 14.842 3.43922 14.5607C3.15791 14.2794 2.99988 13.8979 2.99988 13.5001V4.50006C2.99988 4.10224 3.15791 3.72071 3.43922 3.4394C3.72052 3.1581 4.10205 3.00006 4.49988 3.00006Z" stroke="#262626" stroke-width="1.2" stroke-linecap="round" stroke-linejoin="round"/>
<path d="M8.99988 12C9.82831 12 10.4999 11.3284 10.4999 10.5C10.4999 9.67157 9.82831 9 8.99988 9C8.17145 9 7.49988 9.67157 7.49988 10.5C7.49988 11.3284 8.17145 12 8.99988 12Z" stroke="#262626" stroke-width="1.2" stroke-linecap="round" stroke-linejoin="round"/>
<path d="M10.5001 3.00006V6.00006H6.00012V3.00006" stroke="#262626" stroke-width="1.2" stroke-linecap="round" stroke-linejoin="round"/>
</g>
<defs>
<clipPath id="clip0_325_525">
<rect width="18" height="18" fill="white"/>
</clipPath>
</defs>
</svg>
